PathFileType	4	(X/Y/Z)	4_coords_data.trc
DataRate	CameraRate	NumFrames	NumMarkers	Units	OrigDataRate	OrigDataStartFrame	OrigNumFrames
30.0	30.0	6	21	m	30.0	1	47
Frame#	Time	THUMB_TIP	THUMB_IP	THUMB_MCP	THUMB_CMC	INDEX_TIP	INDEX_DIP	INDEX_PIP	INDEX_MCP	MIDDLE_TIP	MIDDLE_DIP	MIDDLE_PIP	MIDDLE_MCP	RING_TIP	RING_DIP	RING_PIP	RING_MCP	PINKY_TIP	PINKY_DIP	PINKY_PIP	PINKY_MCP	WRIST
X1	Y1	Z1	X2	Y2	Z2	X3	Y3	Z3	X4	Y4	Z4	X5	Y5	Z5	X6	Y6	Z6	X7	Y7	Z7	X8	Y8	Z8	X9	Y9	Z9	X10	Y10	Z10	X11	Y11	Z11	X12	Y12	Z12	X13	Y13	Z13	X14	Y14	Z14	X15	Y15	Z15	X16	Y16	Z16	X17	Y17	Z17	X18	Y18	Z18	X19	Y19	Z19	X20	Y20	Z20	X21	Y21	Z21
0	-2.749317978547796e-18	0.5426817324596922	-0.023076841618908772	-0.13844631085623782	0.5267468048155532	-0.01727104623513298	-0.12294241389651246	0.49649193180805884	-0.01727871626657629	-0.11563060150347328	0.4738980058837243	-0.02550618059811849	-0.078057827557451	0.5696462341119595	0.04548072714690721	-0.15299508040046528	0.554569045984875	0.0415654485033381	-0.14375662861871535	0.5342618898137286	0.03543311511596481	-0.13026501164865661	0.501123235034168	0.031444314879146895	-0.10381590720121123	0.507514542293366	-0.008453680056249135	-0.10903777081103605	0.523809299209351	-0.005253116979864192	-0.1162653079463984	0.543267966830016	0.016435348083824297	-0.11564863330799383	0.5142155532727358	0.030598115950859817	-0.08480189614113567	0.5118556747331856	-0.021831123233033378	-0.09848983295876604	0.5280508891027631	-0.01659107265234805	-0.10442758517953907	0.5487203441847808	-0.0027652903388899475	-0.10308544173216658	0.5288646330275517	0.016037756003382198	-0.07330428969449246	0.6018082296408821	0.014032150118874154	-0.07982096281297821	0.5856198277769314	0.008715988716163303	-0.07818570349667278	0.5654779855154629	0.0034647357968978776	-0.07543933278389042	0.5319626749760035	-0.00952804700064902	-0.07247369531120942	0.462283081001861	-0.023011742144276925	-0.051989820119430985
1	0.03333333333333339	0.5430956375625331	-0.022451794475336073	-0.13849804263888413	0.5269347668144556	-0.016913095226679498	-0.12313090018178222	0.4967349767691073	-0.01690052636812933	-0.11559481875701753	0.4748026625021967	-0.025251845867728107	-0.07765909609996124	0.5701762370475059	0.045017919436747045	-0.15274065792584154	0.5550964071025236	0.04086677465272115	-0.14361011983586713	0.5346660136401947	0.035178533602536866	-0.1301100172536855	0.5013204147896319	0.03120341558045514	-0.10392021832341738	0.5084990127977305	-0.00789289985946251	-0.10888357939187585	0.5246380896944537	-0.006130505155656385	-0.1169100457270478	0.5435674400403103	0.01600503984337942	-0.11585795586421697	0.5146932452731867	0.030118792999486943	-0.08482199656860828	0.5115930444458652	-0.020571310653171193	-0.0985373368722001	0.5281707529224626	-0.017216333946040496	-0.10477622402934289	0.5487798399312206	-0.0033051702436160957	-0.10338876732378427	0.5290317665701006	0.015590339527705721	-0.07359457085860491	0.6019097082439693	0.013858560544667275	-0.08032332221149302	0.5858124796481954	0.00828162164651669	-0.07865689367666426	0.5657147065009008	0.0028728648580005345	-0.07589340249293183	0.5319637488592991	-0.009340560435162737	-0.07234536756030732	0.4622830810018609	-0.023011742144276925	-0.051989820119430985
2	0.06666666666666676	0.543286748480673	-0.021954097530519245	-0.1385783743239765	0.5269577434608811	-0.016633859705786458	-0.12331211530115449	0.4968051939328123	-0.01660241168026555	-0.11558924226199038	0.47543347290733573	-0.02505897470252616	-0.07735802357542818	0.5705576855515936	0.044684569031509525	-0.15252420937392985	0.5554766299279482	0.04035734892370202	-0.14347783289408425	0.5349576813945879	0.03500160084447679	-0.12997603499168675	0.5014530460967783	0.03104305483790859	-0.10398747171714884	0.5092185923551282	-0.008007039273220884	-0.10910906122210173	0.5252629670330531	-0.006772914683544018	-0.11741899369424137	0.5437709112317525	0.01569696179473612	-0.11601535464210849	0.5150393751900516	0.029770653247240597	-0.08482917233993892	0.5115172197201183	-0.01982060267310548	-0.09867531346380387	0.5282408543094106	-0.017681031524483637	-0.10505828153702934	0.5488036433221218	-0.0037068119021606005	-0.10361853400158827	0.5291503550804415	0.015263127335073623	-0.07380896338030823	0.6019579728143649	0.013723635455582306	-0.08073262836253406	0.5859307226799192	0.007957539418850357	-0.07903575193123658	0.5658677253485879	0.00243471688645569	-0.07624530602445623	0.531960842047404	-0.009197724634592452	-0.07225870094503045	0.462283081001861	-0.023011742144276925	-0.051989820119430985
3	0.10000000000000014	0.543329530518176	-0.02156826253750055	-0.13868486495951807	0.5268832365319464	-0.016420591217652825	-0.12348549345602075	0.4967702605058041	-0.016371476155914166	-0.11560981808436585	0.475856137209847	-0.02491548309334657	-0.07714568684219927	0.5708148034524101	0.04445467553401605	-0.15235159276207777	0.5557324950567373	0.04000637262228224	-0.14336623942104113	0.5351517304073837	0.034889132918336396	-0.12986602396867572	0.5015316341581288	0.030950924115188294	-0.10402389298816922	0.5097121059957039	-0.00821032440633307	-0.10936062825134674	0.5257036610540052	-0.007213894766142648	-0.11780321640839138	0.5438981717666811	0.015492050799992718	-0.11612710010155829	0.5152759197789253	0.02953473280625729	-0.08482665770499873	0.5114917322697762	-0.0193830788281657	-0.09883549726783991	0.5282704238444024	-0.018006623399031474	-0.10528382104190537	0.5488004491219447	-0.003990350691359779	-0.10378644317120597	0.5292294750800269	0.0150378445526691	-0.07395985109625208	0.6019765498054059	0.013612809498108724	-0.08107526301732809	0.5859993966691991	0.007718297541846941	-0.07934745907599611	0.5659621605068476	0.002121043497382069	-0.07652045834450047	0.5319549607315754	-0.00909511710146127	-0.07220866569344614	0.4622830810018609	-0.023011742144276925	-0.051989820119430985
4	0.13333333333333353	0.5432748243169521	-0.02127987644720941	-0.1388124428583526	0.5267550115336619	-0.01626276696627149	-0.12364918469721446	0.49667435764698165	-0.016197037605881648	-0.11565106358029363	0.4761176977350624	-0.024811978921666866	-0.07701045645008323	0.5709684182948228	0.04430551012942929	-0.15222442177604328	0.5558840521769078	0.0397854600849632	-0.1432784144869662	0.5352624000451672	0.03482880334071414	-0.12978067948152286	0.5015655390795671	0.0309156172074041	-0.10403491032713374	0.5100196031134432	-0.008377634359132524	-0.10956653579053449	0.5259818968519927	-0.007485286259439783	-0.11807587733223071	0.5439650848185518	0.015372809089635786	-0.11619918407760102	0.5154217007473627	0.029393401786681483	-0.08481692591812273	0.5114663269390353	-0.019141027524066212	-0.09899005434019384	0.5282671057674563	-0.018213772660307992	-0.10546106888013407	0.5487768780807081	-0.0041745454282997585	-0.10390244211704955	0.5292765262200706	0.0148980137020146	-0.07405793509260711	0.6019790740175858	0.013516208745936953	-0.0813713378023545	0.5860342341109467	0.0075443151211522785	-0.07961106314028982	0.5660145438485888	0.0019077202694345319	-0.07673829108583724	0.5319469531231702	-0.009028336695295014	-0.0721901737578024	0.462283081001861	-0.023011742144276925	-0.051989820119430985
5	0.1666666666666669	0.5431571027425937	-0.02107531371783955	-0.1389552870451914	0.5266004679833178	-0.016151512103198207	-0.1238016068615661	0.49654549409929927	-0.016070052350698028	-0.11570766411778036	0.4762531955488156	-0.024741062450072793	-0.07694007193829899	0.5710370080049445	0.04421674036712775	-0.15214125851630333	0.5559495405122645	0.03966801886532567	-0.14321503549890288	0.5353035622714829	0.034808876966529345	-0.12971903033113072	0.5015633619976284	0.030926347693089662	-0.10402543295900185	0.5101737028322885	-0.008481545253506972	-0.10971173635974649	0.526121195506388	-0.007617155065810732	-0.11825166065759331	0.5439847534395336	0.015322894828382005	-0.11623747128687667	0.5154933906441114	0.029329993584177316	-0.08480196029206341	0.5114249261474864	-0.01902721051990819	-0.09912851759973204	0.5282374715766878	-0.018322656108161972	-0.10559705060744953	0.5487380921500026	-0.004277215623078479	-0.10397528099096123	0.5292977871903166	0.014828417429696317	-0.07411275995326022	0.6019728687609108	0.01342752534451852	-0.08163660775612708	0.5860451546683895	0.007420447909963435	-0.07984135165123457	0.5660359933142605	0.0017745159665708554	-0.07691407759590307	0.531937553212947	-0.00899299595764702	-0.07219809194930024	0.4622830810018609	-0.023011742144276925	-0.051989820119430985
